{"title":"Pawn 2013 BRRip XviD AC3 - TODE","uid":8351016,"size":746408761,"categoryP":"video","categoryS":"movies","magnet":"?xt=urn:btih:fa18077f568f2df6cee81aa4368df214a30390a8&amp;dn=Pawn+2013+BRRip+XviD+AC3+-+TODE&amp;tr=udp%3A%2F%2Ftracker.openbittorrent.com%3A80&amp;tr=udp%3A%2F%2Fopen.demonii.com%3A1337&amp;tr=udp%3A%2F%2Ftracker.coppersurfer.tk%3A6969&amp;tr=udp%3A%2F%2Fexodus.desync.com%3A6969","seeders":1,"leechers":0,"uploader":"Gh0stNet","files":3,"time":1365346172,"description":"Director:\nDavid A. Armstrong\n\nWriter:\nJay Anthony White\n\nStars:\nRonald Guttman, Ray Liotta, Max Beesley\n\nGenres:\nCrime |  Thriller\n\n\nThanks: BluRay 720p CHD\n\n\nFormat                                   : AVI\nFormat/Info                              : Audio Video Interleave\nFile size                                : 690 MiB\nDuration                                 : 1h 28mn\nOverall bit rate                         : 1 092 Kbps\nWriting application                      : Lavf54.59.103\n\nVideo\nID                                       : 0\nFormat                                   : MPEG-4 Visual\nFormat profile                           : Simple@L3\nFormat settings, BVOP                    : No\nFormat settings, QPel                    : No\nFormat settings, GMC                     : No warppoints\nFormat settings, Matrix                  : Default (H.263)\nCodec ID                                 : XVID\nCodec ID/Hint                            : XviD\nDuration                                 : 1h 28mn\nBit rate                                 : 953 Kbps\nWidth                                    : 640 pixels\nHeight                                   : 264 pixels\nDisplay aspect ratio                     : 2.40:1\nFrame rate                               : 23.976 fps\nColor space                              : YUV\nChroma subsampling                       : 4:2:0\nBit depth                                : 8 bits\nScan type                                : Progressive\nCompression mode                         : Lossy\nBits/(Pixel*Frame)                       : 0.235\nStream size                              : 603 MiB (87%)\nTitle                                    : Pawn.2013\nWriting library                          : XviD 64\n\nAudio\nID                                       : 1\nFormat                                   : AC-3\nFormat/Info                              : Audio Coding 3\nMode extension                           : CM (complete main)\nFormat settings, Endianness              : Big\nCodec ID                                 : 2000\nDuration                                 : 1h 28mn\nBit rate mode                            : Constant\nBit rate                                 : 128 Kbps\nChannel(s)                               : 2 channels\nChannel positions                        : Front: L R\nSampling rate                            : 48.0 KHz\nBit depth                                : 16 bits\nCompression mode                         : Lossy\nStream size                              : 81.0 MiB (12%)\nAlignment                                : Aligned on interleaves\nInterleave, duration                     : 32 ms (0.77 video frame)\nTitle                                    : DD5.1 640K\n\nScreens:\n &lt;a href=&quot;\nhttp://i.imgur.com/XWyNtrs.png&quot; rel=&quot;nofollow&quot; target=&quot;_NEW&quot;&gt;\nhttp://i.imgur.com/XWyNtrs.png&lt;/a&gt; &lt;a href=&quot;\nhttp://i.imgur.com/OoxZ9Kr.png&quot; rel=&quot;nofollow&quot; target=&quot;_NEW&quot;&gt;\nhttp://i.imgur.com/OoxZ9Kr.png&lt;/a&gt; &lt;a href=&quot;\nhttp://i.imgur.com/X5OG25n.png&quot; rel=&quot;nofollow&quot; target=&quot;_NEW&quot;&gt;\nhttp://i.imgur.com/X5OG25n.png&lt;/a&gt; &lt;a href=&quot;\nhttp://i.imgur.com/0D1mHZJ.png&quot; rel=&quot;nofollow&quot; target=&quot;_NEW&quot;&gt;\nhttp://i.imgur.com/0D1mHZJ.png&lt;/a&gt; &lt;a href=&quot;\nhttp://i.imgur.com/E0PfsjN.png&quot; rel=&quot;nofollow&quot; target=&quot;_NEW&quot;&gt;\nhttp://i.imgur.com/E0PfsjN.png&lt;/a&gt;","torrent":{"xt":"urn:btih:fa18077f568f2df6cee81aa4368df214a30390a8","amp;dn":"Pawn+2013+BRRip+XviD+AC3+-+TODE","amp;tr":["udp%3A%2F%2Ftracker.openbittorrent.com%3A80","udp%3A%2F%2Fopen.demonii.com%3A1337","udp%3A%2F%2Ftracker.coppersurfer.tk%3A6969","udp%3A%2F%2Fexodus.desync.com%3A6969"],"infoHash":"fa18077f568f2df6cee81aa4368df214a30390a8","infoHashBuffer":{"type":"Buffer","data":[250,24,7,127,86,143,45,246,206,232,26,164,54,141,242,20,163,3,144,168]},"announce":[],"urlList":[]}}